# xmcd CD database file
#
# Track frame offsets:
#	150
#	13200
#	29850
#	52200
#	64350
#	87525
#	114750
#	129750
#	160500
#	177825
#	210450
#
# Disc length: 3038 seconds
#
# Revision: 1
# Processed by: cddbd v1.5.1PL0 Copyright (c) Steve Scherf et al.
# Submitted via: CDex 1.51
#
DISCID=950bdc0b
DTITLE=Luther Allison  - Life Is A Bitch
DYEAR=2000
DGENRE=Blues
TTITLE0=Backtrack
TTITLE1=Life Is A Bitch
TTITLE2=Reaching Out
TTITLE3=Parking Lot
TTITLE4=Serious
TTITLE5=Just Memories
TTITLE6=Should I Wait
TTITLE7=Let's Try It Again
TTITLE8=We're On The Road
TTITLE9=Show Me A Reason
TTITLE10=Funky T-Shirt
EXTD=YEAR: 2000
EXTT0=
EXTT1=
EXTT2=
EXTT3=
EXTT4=
EXTT5=
EXTT6=
EXTT7=
EXTT8=
EXTT9=
EXTT10=
PLAYORDER=
